<svg width="18" height="18" viewBox="0 0 18 18" fill="none" xmlns="http://www.w3.org/2000/svg">
<path d="M6.75 2.25H11.25M3.375 10.125C3.375 11.2375 3.7049 12.3251 4.32298 13.2501C4.94107 14.1751 5.81957 14.8961 6.84741 15.3218C7.87524 15.7476 9.00624 15.859 10.0974 15.6419C11.1885 15.4249 12.1908 14.8891 12.9775 14.1025C13.7641 13.3158 14.2999 12.3135 14.5169 11.2224C14.734 10.1312 14.6226 9.00024 14.1968 7.97241C13.7711 6.94457 13.0501 6.06607 12.1251 5.44798C11.2001 4.8299 10.1125 4.5 9 4.5C7.50816 4.5 6.07742 5.09263 5.02252 6.14752C3.96763 7.20242 3.375 8.63316 3.375 10.125V10.125ZM9 7.5V10.5H11.595C11.6064 10.3753 11.6064 10.2497 11.595 10.125C11.595 9.43397 11.3226 8.7708 10.8368 8.27937C10.351 7.78794 9.69098 7.5079 9 7.5ZM9 4.5V2.25V4.5Z" stroke="#493C86" stroke-width="1.5" stroke-linecap="round" stroke-linejoin="round"/>
</svg>
