<svg width="18" height="12" viewBox="0 0 18 12" fill="none" xmlns="http://www.w3.org/2000/svg">
<path d="M17.389 5.77149C17.3643 5.71595 16.7689 4.39504 15.4446 3.07071C13.6809 1.30679 11.4523 0.37439 8.99998 0.37439C6.54763 0.37439 4.31905 1.30679 2.55533 3.07071C1.23107 4.39505 0.63568 5.71594 0.61096 5.77149C0.579009 5.84341 0.5625 5.92124 0.5625 5.99994C0.5625 6.07864 0.579009 6.15646 0.61096 6.22839C0.63568 6.284 1.23114 7.60456 2.5554 8.92869C4.31912 10.6922 6.54763 11.6244 8.99998 11.6244C11.4523 11.6244 13.6808 10.6922 15.4446 8.92869C16.7688 7.60457 17.3643 6.28401 17.389 6.22839C17.421 6.15647 17.4375 6.07864 17.4375 5.99994C17.4375 5.92124 17.421 5.84341 17.389 5.77149ZM8.99998 3.46876C9.50062 3.46876 9.99001 3.61721 10.4063 3.89535C10.8225 4.17349 11.147 4.56881 11.3386 5.03134C11.5301 5.49387 11.5803 6.00282 11.4826 6.49383C11.3849 6.98484 11.1438 7.43587 10.7898 7.78987C10.4358 8.14387 9.98482 8.38495 9.4938 8.48262C9.00279 8.58029 8.49384 8.53016 8.03132 8.33858C7.56879 8.14699 7.17346 7.82256 6.89533 7.4063C6.61719 6.99003 6.46873 6.50064 6.46873 6.00001C6.46949 5.32891 6.73642 4.68552 7.21095 4.21098C7.68549 3.73644 8.32889 3.46951 8.99998 3.46876Z" fill="#B1B1B1"/>
</svg>
