<svg width="18" height="18" viewBox="0 0 18 18" fill="none" xmlns="http://www.w3.org/2000/svg">
<path d="M15.75 3V13.875C15.75 14.3723 15.5525 14.8492 15.2008 15.2008C14.8492 15.5525 14.3723 15.75 13.875 15.75C13.3777 15.75 12.9008 15.5525 12.5492 15.2008C12.1975 14.8492 12 14.3723 12 13.875V12H3.75V3C3.75 2.80109 3.82902 2.61032 3.96967 2.46967C4.11032 2.32902 4.30109 2.25 4.5 2.25H15C15.1989 2.25 15.3897 2.32902 15.5303 2.46967C15.671 2.61032 15.75 2.80109 15.75 3ZM12 13.875V12H2.25V13.875C2.25 14.3723 2.44754 14.8492 2.79917 15.2008C3.15081 15.5525 3.62772 15.75 4.125 15.75H13.875C13.3777 15.75 12.9008 15.5525 12.5492 15.2008C12.1975 14.8492 12 14.3723 12 13.875Z" stroke="#493C86" stroke-width="1.5" stroke-linecap="round" stroke-linejoin="round"/>
<path d="M7.5 7.5L9 9L12 6" stroke="#493C86" stroke-width="1.5" stroke-linecap="round" stroke-linejoin="round"/>
</svg>
