<svg width="16" height="13" viewBox="0 0 16 13" fill="none" xmlns="http://www.w3.org/2000/svg">
<path d="M15.1478 4.71026L11.7728 8.08526C11.6941 8.16391 11.5939 8.21748 11.4848 8.23917C11.3756 8.26087 11.2625 8.24972 11.1598 8.20715C11.057 8.16457 10.9691 8.09248 10.9073 7.99998C10.8455 7.90748 10.8125 7.79874 10.8125 7.68749V4.87499C9.44038 4.87397 8.10688 5.32934 7.02197 6.1694C5.93707 7.00947 5.16237 8.18651 4.81987 9.5152C4.78256 9.65953 4.68947 9.78314 4.56107 9.85888C4.43267 9.93461 4.27946 9.95628 4.13509 9.91912C3.99072 9.88196 3.86701 9.78901 3.79114 9.66069C3.71526 9.53237 3.69343 9.37918 3.73044 9.23477C4.13508 7.66438 5.05055 6.27317 6.33269 5.28021C7.61483 4.28724 9.19081 3.74891 10.8125 3.74999V0.937487C10.8125 0.826238 10.8455 0.717489 10.9073 0.624991C10.9691 0.532493 11.057 0.460399 11.1598 0.417825C11.2625 0.37525 11.3756 0.364106 11.4848 0.385801C11.5939 0.407497 11.6941 0.461058 11.7728 0.539713L15.1478 3.91471C15.2533 4.02022 15.3125 4.1633 15.3125 4.31249C15.3125 4.46168 15.2533 4.60476 15.1478 4.71026ZM12.5 11.625H1.8125V3.18749C1.8125 3.0383 1.75324 2.89523 1.64775 2.78974C1.54226 2.68425 1.39918 2.62499 1.25 2.62499C1.10082 2.62499 0.957742 2.68425 0.852252 2.78974C0.746763 2.89523 0.6875 3.0383 0.6875 3.18749V11.625C0.687841 11.9232 0.806477 12.2092 1.01738 12.4201C1.22829 12.631 1.51424 12.7496 1.8125 12.75H12.5C12.6492 12.75 12.7923 12.6907 12.8977 12.5852C13.0032 12.4797 13.0625 12.3367 13.0625 12.1875C13.0625 12.0383 13.0032 11.8952 12.8977 11.7897C12.7923 11.6842 12.6492 11.625 12.5 11.625Z" fill="#B1B1B1"/>
</svg>
